# xmcd CD database file
#
# Track frame offsets:
#	150
#	19745
#	52327
#	80492
#	145137
#	202255
#
# Disc length: 3133 seconds
#
# Revision: 0
# Processed by: cddbd v1.5.2PL0 Copyright (c) Steve Scherf et al.
# Submitted via: CDex 1.70beta2
#
DISCID=570c3b06
DTITLE=The Dave Brubeck Quartett - Live at Carnegie Hall CD2
DYEAR=1963
DGENRE=Jazz
TTITLE0=Eleven Four
TTITLE1=It's a Raggy Waltz
TTITLE2=King for a day
TTITLE3=Castilian Drums
TTITLE4=Blue Rondo a la Turk
TTITLE5=Take Five
EXTD=YEAR: 1963
EXTT0=
EXTT1=
EXTT2=
EXTT3=
EXTT4=
EXTT5=
PLAYORDER=
